<svg version="1.2" xmlns="http://www.w3.org/2000/svg" viewBox="1714 0 1684 1191" width="1684" height="1191">
	<defs>
		<clipPath clipPathUnits="userSpaceOnUse" id="cp1">
			<path d="m1714 0h1684v1191h-1684z"/>
		</clipPath>
	</defs>
	<style>
		.s0 { fill: #1d1d1d } 
		.s1 { fill: #ffffff } 
	</style>
	<g id="Page 2" clip-path="url(#cp1)">
		<path id="Path 7" class="s0" d="m1714 1191h1683.78v-1190.55h-1683.78z"/>
		<path id="Path 8" fill-rule="evenodd" class="s1" d="m2452.41 601.55v60.9h-20v-60.9c0-23.74-23.58-49.37-61.68-49.37h-49.59v-20h49.59c22.83 0 43.81 7.6 59.08 21.41 14.36 12.99 22.6 30.47 22.6 47.96zm-260.11-69.37h121.17v20h-121.17z"/>
		<path id="Path 9" fill-rule="evenodd" class="s1" d="m2192.3 558.4v20c76.56 0 94.23 43.11 98.31 63.21h-98.31v20h119.53v-10c0-0.93-1.36-93.21-119.53-93.21zm727.18-26.88h-134.58l2.78 12.21c0.19 0.85 4.93 20.98 23.93 40.81 5.1 5.31 10.56 9.92 16.27 13.93-3.52 3.01-6.69 6.03-9.5 8.95-19.45 20.26-26.77 40.6-27.07 41.46l-4.7 13.32h132.87v-20h-102.76c5.54-9.38 14.96-22.14 29.65-33.07 24.8 11.56 51.76 14.58 73.11 14.58v-20c-20.46 0-37.25-2.83-51.04-7.29 13.87-5.98 30.71-9.92 51.04-9.92v-20c-31.66 0-56.02 8.56-74.25 19.51-18.25-10.95-28.11-24.73-33.17-34.49h107.42z"/>
		<path id="Path 10" fill-rule="evenodd" class="s1" d="m2418.94 614.59c0 25.18-20.49 45.67-45.67 45.67-25.19 0-45.68-20.49-45.68-45.67 0-25.19 20.49-45.68 45.68-45.68 25.18 0 45.67 20.49 45.67 45.68zm-20 0c0-14.16-11.51-25.68-25.67-25.68-14.16 0-25.68 11.52-25.68 25.68 0 14.15 11.52 25.67 25.68 25.67 14.16 0 25.67-11.52 25.67-25.67zm353.91-69.76c0 8.49-6.9 15.39-15.38 15.39-8.48 0-15.38-6.9-15.38-15.39 0-8.48 6.9-15.38 15.38-15.38 8.48 0 15.38 6.9 15.38 15.38z"/>
		<path id="Path 11" fill-rule="evenodd" class="s1" d="m2550.88 554.48c22.03 21.04 33.2 52.51 33.2 93.53v14.44h-20v-14.44c0-35.34-9.09-61.95-27.01-79.07-18.16-17.34-40.21-19.94-51.77-19.94v113.45h-20v-133.43h19.98v-0.02c14.54 0 42.39 3.31 65.6 25.48zm144.72-23.52h20v68.42h-0.02c-0.47 34.72-28.84 62.82-63.67 62.82-35.11 0-63.68-28.57-63.68-63.68 0-35.12 28.57-63.69 63.68-63.69 16.9 0 32.28 6.63 43.69 17.41zm0 67.56c0-24.09-19.6-43.68-43.69-43.68-24.08 0-43.68 19.59-43.68 43.68 0 24.09 19.6 43.69 43.68 43.69 24.09 0 43.69-19.6 43.69-43.69zm31.87-8.49h20v72.17h-20zm32.16-59.07h20v131.23h-20z"/>
	</g>
</svg>